{
	"asset":{
		"generator":"Khronos glTF Blender I/O v4.1.63",
		"version":"2.0"
	},
	"extensionsUsed":[
		"KHR_materials_transmission",
		"KHR_materials_specular",
		"KHR_materials_ior"
	],
	"scene":0,
	"scenes":[
		{
			"name":"Scene",
			"nodes":[
				2
			]
		}
	],
	"nodes":[
		{
			"mesh":0,
			"name":"Case Front",
			"rotation":[
				0.20838488638401031,
				-0.20838481187820435,
				-0.6757038235664368,
				0.6757040619850159
			],
			"translation":[
				-0.0006308555603027344,
				0,
				1.1053247451782227
			]
		},
		{
			"mesh":1,
			"name":"CD",
			"rotation":[
				0.7071068286895752,
				0.7071068286895752,
				0,
				5.338509012631221e-08
			],
			"scale":[
				1.0221929550170898,
				1.022193193435669,
				1.0221929550170898
			],
			"translation":[
				0.5282306671142578,
				0.005989432334899902,
				-1.907060980796814
			]
		},
		{
			"children":[
				0,
				1
			],
			"mesh":2,
			"name":"Case Back",
			"translation":[
				-0.10297346115112305,
				1.044848918914795,
				0.6400805711746216
			]
		}
	],
	"materials":[
		{
			"alphaMode":"BLEND",
			"doubleSided":true,
			"extensions":{
				"KHR_materials_transmission":{
					"transmissionFactor":1
				},
				"KHR_materials_specular":{
					"specularFactor":0.9015151858329773
				},
				"KHR_materials_ior":{
					"ior":3
				}
			},
			"name":"Translucent",
			"pbrMetallicRoughness":{
				"baseColorFactor":[
					0.8794687390327454,
					0.9709928035736084,
					1,
					0.6363636255264282
				],
				"metallicFactor":0
			}
		},
		{
			"doubleSided":true,
			"extensions":{
				"KHR_materials_specular":{
					"specularColorFactor":[
						1.0636364221572876,
						1.0636364221572876,
						1.0636364221572876
					]
				},
				"KHR_materials_ior":{
					"ior":1.4500000476837158
				}
			},
			"name":"Cover",
			"pbrMetallicRoughness":{
				"baseColorTexture":{
					"index":0
				},
				"metallicFactor":0,
				"metallicRoughnessTexture":{
					"index":1
				}
			}
		},
		{
			"alphaCutoff":0.5,
			"alphaMode":"MASK",
			"doubleSided":true,
			"extensions":{
				"KHR_materials_specular":{
					"specularColorFactor":[
						1.1409090757369995,
						1.1409090757369995,
						1.1409090757369995
					]
				},
				"KHR_materials_ior":{
					"ior":1.4500000476837158
				}
			},
			"name":"Material.001",
			"pbrMetallicRoughness":{
				"baseColorTexture":{
					"index":2
				},
				"metallicFactor":0.4833333492279053,
				"roughnessFactor":0.13333334028720856
			}
		},
		{
			"alphaCutoff":0.5,
			"alphaMode":"MASK",
			"doubleSided":true,
			"extensions":{
				"KHR_materials_specular":{
					"specularFactor":0
				},
				"KHR_materials_ior":{
					"ior":1.4500000476837158
				}
			},
			"name":"Material.002",
			"pbrMetallicRoughness":{
				"baseColorTexture":{
					"index":3
				},
				"metallicFactor":0,
				"roughnessFactor":0.40909093618392944
			}
		},
		{
			"doubleSided":true,
			"name":"Rough Plastic",
			"pbrMetallicRoughness":{
				"baseColorFactor":[
					0,
					0,
					0,
					1
				],
				"metallicFactor":0,
				"roughnessFactor":0.4000000059604645
			}
		},
		{
			"doubleSided":true,
			"extensions":{
				"KHR_materials_specular":{
					"specularFactor":0
				},
				"KHR_materials_ior":{
					"ior":1.4500000476837158
				}
			},
			"name":"White",
			"pbrMetallicRoughness":{
				"baseColorFactor":[
					0.04954893887042999,
					0.04954893887042999,
					0.04954893887042999,
					1
				],
				"metallicFactor":0
			}
		},
		{
			"alphaCutoff":0.5,
			"alphaMode":"MASK",
			"doubleSided":true,
			"name":"Material.008",
			"pbrMetallicRoughness":{
				"baseColorFactor":[
					0.800000011920929,
					0.800000011920929,
					0.800000011920929,
					0
				],
				"metallicFactor":0,
				"roughnessFactor":0.5
			}
		},
		{
			"doubleSided":true,
			"name":"FileBase",
			"pbrMetallicRoughness":{
				"baseColorFactor":[
					0.6151769757270813,
					0.6151769757270813,
					0.6151769757270813,
					1
				],
				"metallicFactor":0
			}
		}
	],
	"meshes":[
		{
			"name":"Plane.001",
			"primitives":[
				{
					"attributes":{
						"POSITION":0,
						"NORMAL":1,
						"TEXCOORD_0":2
					},
					"indices":3,
					"material":0
				},
				{
					"attributes":{
						"POSITION":4,
						"NORMAL":5,
						"TEXCOORD_0":6
					},
					"indices":7,
					"material":1
				}
			]
		},
		{
			"name":"Cylinder",
			"primitives":[
				{
					"attributes":{
						"POSITION":8,
						"NORMAL":9,
						"TEXCOORD_0":10
					},
					"indices":11,
					"material":2
				},
				{
					"attributes":{
						"POSITION":12,
						"NORMAL":13,
						"TEXCOORD_0":14
					},
					"indices":15,
					"material":3
				}
			]
		},
		{
			"name":"Case Back Proper",
			"primitives":[
				{
					"attributes":{
						"POSITION":16,
						"NORMAL":17,
						"TEXCOORD_0":18
					},
					"indices":19,
					"material":4
				},
				{
					"attributes":{
						"POSITION":20,
						"NORMAL":21,
						"TEXCOORD_0":22
					},
					"indices":23,
					"material":0
				},
				{
					"attributes":{
						"POSITION":24,
						"NORMAL":25,
						"TEXCOORD_0":26
					},
					"indices":27,
					"material":5
				},
				{
					"attributes":{
						"POSITION":28,
						"NORMAL":29,
						"TEXCOORD_0":30
					},
					"indices":31,
					"material":6
				},
				{
					"attributes":{
						"POSITION":32,
						"NORMAL":33,
						"TEXCOORD_0":34
					},
					"indices":35,
					"material":7
				}
			]
		}
	],
	"textures":[
		{
			"sampler":0,
			"source":0
		},
		{
			"sampler":0,
			"source":1
		},
		{
			"sampler":0,
			"source":2
		},
		{
			"sampler":0,
			"source":2
		}
	],
	"images":[
		{
			"mimeType":"image/png",
			"name":"clairo",
			"uri":"clairo.png"
		},
		{
			"mimeType":"image/png",
			"name":"clairo",
			"uri":"clairo-1.png"
		},
		{
			"mimeType":"image/png",
			"name":"2cd43b_0242e604c61d4732ac33ede263ee117f_mv2",
			"uri":"2cd43b_0242e604c61d4732ac33ede263ee117f_mv2.png"
		}
	],
	"accessors":[
		{
			"bufferView":0,
			"componentType":5126,
			"count":172,
			"max":[
				1,
				0.0514412522315979,
				-0.005098849534988403
			],
			"min":[
				-1.0000004768371582,
				-0.0514412522315979,
				-2.1999988555908203
			],
			"type":"VEC3"
		},
		{
			"bufferView":1,
			"componentType":5126,
			"count":172,
			"type":"VEC3"
		},
		{
			"bufferView":2,
			"componentType":5126,
			"count":172,
			"type":"VEC2"
		},
		{
			"bufferView":3,
			"componentType":5123,
			"count":342,
			"type":"SCALAR"
		},
		{
			"bufferView":4,
			"componentType":5126,
			"count":4,
			"max":[
				0.9924604892730713,
				0.04816591739654541,
				-0.19888631999492645
			],
			"min":[
				-0.9924604892730713,
				0.04816591739654541,
				-2.1924595832824707
			],
			"type":"VEC3"
		},
		{
			"bufferView":5,
			"componentType":5126,
			"count":4,
			"type":"VEC3"
		},
		{
			"bufferView":6,
			"componentType":5126,
			"count":4,
			"type":"VEC2"
		},
		{
			"bufferView":7,
			"componentType":5123,
			"count":6,
			"type":"SCALAR"
		},
		{
			"bufferView":8,
			"componentType":5126,
			"count":1330,
			"max":[
				0.9147648811340332,
				0.00669117784127593,
				0.9147648811340332
			],
			"min":[
				-0.9147648215293884,
				-0.0015309769660234451,
				-0.9147648215293884
			],
			"type":"VEC3"
		},
		{
			"bufferView":9,
			"componentType":5126,
			"count":1330,
			"type":"VEC3"
		},
		{
			"bufferView":10,
			"componentType":5126,
			"count":1330,
			"type":"VEC2"
		},
		{
			"bufferView":11,
			"componentType":5123,
			"count":2880,
			"type":"SCALAR"
		},
		{
			"bufferView":12,
			"componentType":5126,
			"count":320,
			"max":[
				0.32980456948280334,
				0.009312408976256847,
				0.3298036754131317
			],
			"min":[
				-0.32980456948280334,
				-0.0015309769660234451,
				-0.3298055827617645
			],
			"type":"VEC3"
		},
		{
			"bufferView":13,
			"componentType":5126,
			"count":320,
			"type":"VEC3"
		},
		{
			"bufferView":14,
			"componentType":5126,
			"count":320,
			"type":"VEC2"
		},
		{
			"bufferView":15,
			"componentType":5123,
			"count":576,
			"type":"SCALAR"
		},
		{
			"bufferView":16,
			"componentType":5126,
			"count":373,
			"max":[
				0.036305129528045654,
				0.9912435412406921,
				0.9000005722045898
			],
			"min":[
				-0.05063110589981079,
				-0.9912435412406921,
				-1.094673991203308
			],
			"type":"VEC3"
		},
		{
			"bufferView":17,
			"componentType":5126,
			"count":373,
			"type":"VEC3"
		},
		{
			"bufferView":18,
			"componentType":5126,
			"count":373,
			"type":"VEC2"
		},
		{
			"bufferView":19,
			"componentType":5123,
			"count":1164,
			"type":"SCALAR"
		},
		{
			"bufferView":20,
			"componentType":5126,
			"count":95,
			"max":[
				0.036473143845796585,
				0.9912435412406921,
				0.9000005722045898
			],
			"min":[
				-0.05063110589981079,
				-0.9912435412406921,
				-1.0999994277954102
			],
			"type":"VEC3"
		},
		{
			"bufferView":21,
			"componentType":5126,
			"count":95,
			"type":"VEC3"
		},
		{
			"bufferView":22,
			"componentType":5126,
			"count":95,
			"type":"VEC2"
		},
		{
			"bufferView":23,
			"componentType":5123,
			"count":207,
			"type":"SCALAR"
		},
		{
			"bufferView":24,
			"componentType":5126,
			"count":122,
			"max":[
				0.05063110589981079,
				0.9912435412406921,
				1.0999994277954102
			],
			"min":[
				-0.05063110589981079,
				-0.9912435412406921,
				-1.094673991203308
			],
			"type":"VEC3"
		},
		{
			"bufferView":25,
			"componentType":5126,
			"count":122,
			"type":"VEC3"
		},
		{
			"bufferView":26,
			"componentType":5126,
			"count":122,
			"type":"VEC2"
		},
		{
			"bufferView":27,
			"componentType":5123,
			"count":342,
			"type":"SCALAR"
		},
		{
			"bufferView":28,
			"componentType":5126,
			"count":64,
			"max":[
				-0.030187183991074562,
				0.11790590733289719,
				0.017907720059156418
			],
			"min":[
				-0.032238252460956573,
				-0.11790721863508224,
				-0.21790659427642822
			],
			"type":"VEC3"
		},
		{
			"bufferView":29,
			"componentType":5126,
			"count":64,
			"type":"VEC3"
		},
		{
			"bufferView":30,
			"componentType":5126,
			"count":64,
			"type":"VEC2"
		},
		{
			"bufferView":31,
			"componentType":5123,
			"count":186,
			"type":"SCALAR"
		},
		{
			"bufferView":32,
			"componentType":5126,
			"count":950,
			"max":[
				0.010475716553628445,
				0.986320436000824,
				0.8795465230941772
			],
			"min":[
				-0.032238252460956573,
				-0.986320436000824,
				-1.0795453786849976
			],
			"type":"VEC3"
		},
		{
			"bufferView":33,
			"componentType":5126,
			"count":950,
			"type":"VEC3"
		},
		{
			"bufferView":34,
			"componentType":5126,
			"count":950,
			"type":"VEC2"
		},
		{
			"bufferView":35,
			"componentType":5123,
			"count":2028,
			"type":"SCALAR"
		}
	],
	"bufferViews":[
		{
			"buffer":0,
			"byteLength":2064,
			"byteOffset":0,
			"target":34962
		},
		{
			"buffer":0,
			"byteLength":2064,
			"byteOffset":2064,
			"target":34962
		},
		{
			"buffer":0,
			"byteLength":1376,
			"byteOffset":4128,
			"target":34962
		},
		{
			"buffer":0,
			"byteLength":684,
			"byteOffset":5504,
			"target":34963
		},
		{
			"buffer":0,
			"byteLength":48,
			"byteOffset":6188,
			"target":34962
		},
		{
			"buffer":0,
			"byteLength":48,
			"byteOffset":6236,
			"target":34962
		},
		{
			"buffer":0,
			"byteLength":32,
			"byteOffset":6284,
			"target":34962
		},
		{
			"buffer":0,
			"byteLength":12,
			"byteOffset":6316,
			"target":34963
		},
		{
			"buffer":0,
			"byteLength":15960,
			"byteOffset":6328,
			"target":34962
		},
		{
			"buffer":0,
			"byteLength":15960,
			"byteOffset":22288,
			"target":34962
		},
		{
			"buffer":0,
			"byteLength":10640,
			"byteOffset":38248,
			"target":34962
		},
		{
			"buffer":0,
			"byteLength":5760,
			"byteOffset":48888,
			"target":34963
		},
		{
			"buffer":0,
			"byteLength":3840,
			"byteOffset":54648,
			"target":34962
		},
		{
			"buffer":0,
			"byteLength":3840,
			"byteOffset":58488,
			"target":34962
		},
		{
			"buffer":0,
			"byteLength":2560,
			"byteOffset":62328,
			"target":34962
		},
		{
			"buffer":0,
			"byteLength":1152,
			"byteOffset":64888,
			"target":34963
		},
		{
			"buffer":0,
			"byteLength":4476,
			"byteOffset":66040,
			"target":34962
		},
		{
			"buffer":0,
			"byteLength":4476,
			"byteOffset":70516,
			"target":34962
		},
		{
			"buffer":0,
			"byteLength":2984,
			"byteOffset":74992,
			"target":34962
		},
		{
			"buffer":0,
			"byteLength":2328,
			"byteOffset":77976,
			"target":34963
		},
		{
			"buffer":0,
			"byteLength":1140,
			"byteOffset":80304,
			"target":34962
		},
		{
			"buffer":0,
			"byteLength":1140,
			"byteOffset":81444,
			"target":34962
		},
		{
			"buffer":0,
			"byteLength":760,
			"byteOffset":82584,
			"target":34962
		},
		{
			"buffer":0,
			"byteLength":414,
			"byteOffset":83344,
			"target":34963
		},
		{
			"buffer":0,
			"byteLength":1464,
			"byteOffset":83760,
			"target":34962
		},
		{
			"buffer":0,
			"byteLength":1464,
			"byteOffset":85224,
			"target":34962
		},
		{
			"buffer":0,
			"byteLength":976,
			"byteOffset":86688,
			"target":34962
		},
		{
			"buffer":0,
			"byteLength":684,
			"byteOffset":87664,
			"target":34963
		},
		{
			"buffer":0,
			"byteLength":768,
			"byteOffset":88348,
			"target":34962
		},
		{
			"buffer":0,
			"byteLength":768,
			"byteOffset":89116,
			"target":34962
		},
		{
			"buffer":0,
			"byteLength":512,
			"byteOffset":89884,
			"target":34962
		},
		{
			"buffer":0,
			"byteLength":372,
			"byteOffset":90396,
			"target":34963
		},
		{
			"buffer":0,
			"byteLength":11400,
			"byteOffset":90768,
			"target":34962
		},
		{
			"buffer":0,
			"byteLength":11400,
			"byteOffset":102168,
			"target":34962
		},
		{
			"buffer":0,
			"byteLength":7600,
			"byteOffset":113568,
			"target":34962
		},
		{
			"buffer":0,
			"byteLength":4056,
			"byteOffset":121168,
			"target":34963
		}
	],
	"samplers":[
		{
			"magFilter":9729,
			"minFilter":9987
		}
	],
	"buffers":[
		{
			"byteLength":125224,
			"uri":"cd.bin"
		}
	]
}
